<svg xmlns="http://www.w3.org/2000/svg" viewBox="0 0 512 512" width="512" height="512"><path d="M434.0,256.0 L461.3,273.2 L456.1,305.1 L424.7,312.8 L410.2,345.0 L425.2,373.6 L404.7,398.6 L373.7,389.5 L345.0,410.2 L343.7,442.4 L313.5,453.8 L291.2,430.5 L256.0,434.0 L238.8,461.3 L206.9,456.1 L199.2,424.7 L167.0,410.2 L138.4,425.2 L113.4,404.7 L122.5,373.7 L101.8,345.0 L69.6,343.7 L58.2,313.5 L81.5,291.2 L78.0,256.0 L50.7,238.8 L55.9,206.9 L87.3,199.2 L101.8,167.0 L86.8,138.4 L107.3,113.4 L138.3,122.5 L167.0,101.8 L168.3,69.6 L198.5,58.2 L220.8,81.5 L256.0,78.0 L273.2,50.7 L305.1,55.9 L312.8,87.3 L345.0,101.8 L373.6,86.8 L398.6,107.3 L389.5,138.3 L410.2,167.0 L442.4,168.3 L453.8,198.5 L430.5,220.8 Z" fill="none" stroke="#111827" stroke-width="13" stroke-linejoin="round" stroke-linecap="round"/><path d="M406.0,256.0 C361.0,288.7 298.0,289.9 270.1,275.4" fill="none" stroke="#111827" stroke-width="5.5" stroke-linecap="round"/><path d="M385.9,331.0 C330.6,336.8 275.5,306.4 258.5,279.9" fill="none" stroke="#111827" stroke-width="5.5" stroke-linecap="round"/><path d="M331.0,385.9 C280.2,363.3 247.7,309.4 246.2,277.9" fill="none" stroke="#111827" stroke-width="5.5" stroke-linecap="round"/><path d="M256.0,406.0 C223.3,361.0 222.1,298.0 236.6,270.1" fill="none" stroke="#111827" stroke-width="5.5" stroke-linecap="round"/><path d="M181.0,385.9 C175.2,330.6 205.6,275.5 232.1,258.5" fill="none" stroke="#111827" stroke-width="5.5" stroke-linecap="round"/><path d="M126.1,331.0 C148.7,280.2 202.6,247.7 234.1,246.2" fill="none" stroke="#111827" stroke-width="5.5" stroke-linecap="round"/><path d="M106.0,256.0 C151.0,223.3 214.0,222.1 241.9,236.6" fill="none" stroke="#111827" stroke-width="5.5" stroke-linecap="round"/><path d="M126.1,181.0 C181.4,175.2 236.5,205.6 253.5,232.1" fill="none" stroke="#111827" stroke-width="5.5" stroke-linecap="round"/><path d="M181.0,126.1 C231.8,148.7 264.3,202.6 265.8,234.1" fill="none" stroke="#111827" stroke-width="5.5" stroke-linecap="round"/><path d="M256.0,106.0 C288.7,151.0 289.9,214.0 275.4,241.9" fill="none" stroke="#111827" stroke-width="5.5" stroke-linecap="round"/><path d="M331.0,126.1 C336.8,181.4 306.4,236.5 279.9,253.5" fill="none" stroke="#111827" stroke-width="5.5" stroke-linecap="round"/><path d="M385.9,181.0 C363.3,231.8 309.4,264.3 277.9,265.8" fill="none" stroke="#111827" stroke-width="5.5" stroke-linecap="round"/><circle cx="346.8" cy="281.1" r="7" fill="#111827"/><circle cx="268.4" cy="332.8" r="7" fill="#111827"/><circle cx="192.1" cy="313.4" r="7" fill="#111827"/><circle cx="165.2" cy="230.9" r="7" fill="#111827"/><circle cx="243.6" cy="179.2" r="7" fill="#111827"/><circle cx="319.9" cy="198.6" r="7" fill="#111827"/><circle cx="256" cy="256" r="30" fill="none" stroke="#111827" stroke-width="7"/><circle cx="256" cy="256" r="15" fill="#111827"/></svg>